# xmcd
#
# Track frame offsets: 
#        150
#        53908
#        96239
#        138031
#        191202
#        219626
#        260082
#        307586
#
# Disc length: 4557 seconds
#
# Revision: 3
# Processed by: cddbd v1.5.2PL0 Copyright (c) Steve Scherf et al.
# Submitted via: ExactAudioCopyFreeDBPlugin 1.0
#
DISCID=7011cb08
DTITLE=Bedrock - Beautiful Strange (2001)
DYEAR=2001
DGENRE=Trance
TTITLE0=Beautiful Strange (Original Mix)
TTITLE1=Beautiful Strange (Moonface Mix)
TTITLE2=Beautiful Strange (Rui Da Silva Mix)
TTITLE3=Beautiful Strange (Voyager's Platinum Remix)
TTITLE4=Beautiful Strange (Bedrock's Ambient Beats)
TTITLE5=Forge (Original Mix)
TTITLE6=Voices (Saeed and Palash Breathless Remix)
TTITLE7=Heaven Scent (POB's Seismix)
EXTD=\nYEAR: 2001  ID3G:  26
EXTT0=
EXTT1=
EXTT2=
EXTT3=
EXTT4=
EXTT5=
EXTT6=
EXTT7=
PLAYORDER=
